HIERARCHY
ROOT Hips
{
	OFFSET 0.000000 87.230942 0.000000
	CHANNELS 6 Xposition Yposition Zposition Xrotation Yrotation Zrotation
	JOINT Pelvis
	{
		OFFSET 0.000000 0.000000 0.000000
		CHANNELS 3 Xrotation Yrotation Zrotation
		JOINT LeftUpLeg
		{
			OFFSET 12.017000 -9.376404 -2.439400
			CHANNELS 3 Xrotation Yrotation Zrotation
			JOINT LeftLeg
			{
				OFFSET -0.007312 -32.846973 2.110600
				CHANNELS 3 Xrotation Yrotation Zrotation
				JOINT LeftFoot
				{
					OFFSET 0.007312 -32.065170 -0.570400
					CHANNELS 3 Xrotation Yrotation Zrotation
					JOINT LeftToeBase
					{
						OFFSET 0.728300 -11.045900 13.180700
						CHANNELS 3 Xrotation Yrotation Zrotation
						End Site
						{
							OFFSET 0.000000 17.212589 0.000000
						}
					}
				}
				JOINT LeftPantLeg
				{
					OFFSET 0.002788 -16.709013 -3.143600
					CHANNELS 3 Xrotation Yrotation Zrotation
					End Site
					{
						OFFSET -0.605125 24.528742 0.000000
					}
				}
			}
			JOINT Left_Butt
			{
				OFFSET -6.630234 1.326584 -3.183700
				CHANNELS 3 Xrotation Yrotation Zrotation
				End Site
				{
					OFFSET -0.498041 20.188049 0.000000
				}
			}
		}
		JOINT RightUpLeg
		{
			OFFSET -11.717000 -9.376404 -2.439400
			CHANNELS 3 Xrotation Yrotation Zrotation
			JOINT RightLeg
			{
				OFFSET -0.003241 -32.846912 2.110600
				CHANNELS 3 Xrotation Yrotation Zrotation
				JOINT RightFoot
				{
					OFFSET 0.003241 -32.065136 -0.570500
					CHANNELS 3 Xrotation Yrotation Zrotation
					JOINT RightToeBase
					{
						OFFSET -0.728300 -11.045901 13.180700
						CHANNELS 3 Xrotation Yrotation Zrotation
						End Site
						{
							OFFSET 0.000000 17.212593 0.000000
						}
					}
				}
				JOINT RightPantLeg
				{
					OFFSET 0.008142 -16.708982 -3.143700
					CHANNELS 3 Xrotation Yrotation Zrotation
					End Site
					{
						OFFSET 0.605088 24.528715 0.000000
					}
				}
			}
			JOINT Right_Butt
			{
				OFFSET 6.630732 1.326584 -3.183700
				CHANNELS 3 Xrotation Yrotation Zrotation
				End Site
				{
					OFFSET 0.498015 20.188240 0.000000
				}
			}
		}
	}
	JOINT Spine
	{
		OFFSET -0.062400 7.848404 3.918300
		CHANNELS 3 Xrotation Yrotation Zrotation
		JOINT Spine1
		{
			OFFSET -0.072800 11.422302 0.713400
			CHANNELS 3 Xrotation Yrotation Zrotation
			JOINT Spine2
			{
				OFFSET -0.083200 13.054001 -1.931600
				CHANNELS 3 Xrotation Yrotation Zrotation
				JOINT Neck
				{
					OFFSET -0.092200 14.121796 -5.138800
					CHANNELS 3 Xrotation Yrotation Zrotation
					JOINT Head
					{
						OFFSET 0.000200 10.447403 -0.842000
						CHANNELS 3 Xrotation Yrotation Zrotation
						JOINT Visor
						{
							OFFSET 0.457100 25.671204 16.550400
							CHANNELS 3 Xrotation Yrotation Zrotation
							End Site
							{
								OFFSET 0.000000 26.061493 0.000000
							}
						}
						JOINT HairMidA
						{
							OFFSET 0.459400 31.585403 8.437400
							CHANNELS 3 Xrotation Yrotation Zrotation
							End Site
							{
								OFFSET 0.000000 26.061493 0.000000
							}
						}
						JOINT HairMidB
						{
							OFFSET 0.464000 33.309204 -8.389700
							CHANNELS 3 Xrotation Yrotation Zrotation
							End Site
							{
								OFFSET 0.000000 26.061493 0.000000
							}
						}
						JOINT HairMidC
						{
							OFFSET 0.466600 27.991196 -17.375099
							CHANNELS 3 Xrotation Yrotation Zrotation
							End Site
							{
								OFFSET 0.000000 26.061493 0.000000
							}
						}
						JOINT HairMidD
						{
							OFFSET 0.467700 17.888092 -21.169500
							CHANNELS 3 Xrotation Yrotation Zrotation
							End Site
							{
								OFFSET 0.000000 26.061493 0.000000
							}
						}
						JOINT HairMidE
						{
							OFFSET 5.325700 3.514603 -14.369699
							CHANNELS 3 Xrotation Yrotation Zrotation
							End Site
							{
								OFFSET 0.000000 26.061493 0.000000
							}
						}
						JOINT HairMidF
						{
							OFFSET -4.394100 3.514603 -14.372400
							CHANNELS 3 Xrotation Yrotation Zrotation
							End Site
							{
								OFFSET 0.000000 26.061493 0.000000
							}
						}
						JOINT HairLeftA
						{
							OFFSET 15.319900 25.746506 2.623300
							CHANNELS 3 Xrotation Yrotation Zrotation
							End Site
							{
								OFFSET 0.000000 26.061493 0.000000
							}
						}
						JOINT HairLeftB
						{
							OFFSET 12.619500 29.289398 -8.731499
							CHANNELS 3 Xrotation Yrotation Zrotation
							End Site
							{
								OFFSET 0.000000 26.061493 0.000000
							}
						}
						JOINT HairLeftC
						{
							OFFSET 15.714800 15.959900 2.909800
							CHANNELS 3 Xrotation Yrotation Zrotation
							End Site
							{
								OFFSET 0.000000 26.061493 0.000000
							}
						}
						JOINT HairLeftD
						{
							OFFSET 16.101700 18.437408 -7.553200
							CHANNELS 3 Xrotation Yrotation Zrotation
							End Site
							{
								OFFSET 0.000000 26.061493 0.000000
							}
						}
						JOINT HairLeftE
						{
							OFFSET 9.731900 17.915009 -18.316799
							CHANNELS 3 Xrotation Yrotation Zrotation
							End Site
							{
								OFFSET 0.000000 26.061493 0.000000
							}
						}
						JOINT HairLeftF
						{
							OFFSET 11.204300 4.953598 -9.668100
							CHANNELS 3 Xrotation Yrotation Zrotation
							End Site
							{
								OFFSET 0.000000 26.061493 0.000000
							}
						}
						JOINT HairRightA
						{
							OFFSET -14.397900 25.746307 2.615100
							CHANNELS 3 Xrotation Yrotation Zrotation
							End Site
							{
								OFFSET 0.000000 26.061493 0.000000
							}
						}
						JOINT HairRightB
						{
							OFFSET -11.691200 29.289200 -8.738199
							CHANNELS 3 Xrotation Yrotation Zrotation
							End Site
							{
								OFFSET 0.000000 26.061493 0.000000
							}
						}
						JOINT HairRightC
						{
							OFFSET -14.792900 15.959702 2.901400
							CHANNELS 3 Xrotation Yrotation Zrotation
							End Site
							{
								OFFSET 0.000000 26.061493 0.000000
							}
						}
						JOINT HairRightD
						{
							OFFSET -15.174000 18.437195 -7.561900
							CHANNELS 3 Xrotation Yrotation Zrotation
							End Site
							{
								OFFSET 0.000000 26.061493 0.000000
							}
						}
						JOINT HairRightE
						{
							OFFSET -8.798200 17.914902 -18.322001
							CHANNELS 3 Xrotation Yrotation Zrotation
							End Site
							{
								OFFSET 0.000000 26.061493 0.000000
							}
						}
						JOINT HairRightF
						{
							OFFSET -10.275200 4.953506 -9.674099
							CHANNELS 3 Xrotation Yrotation Zrotation
							End Site
							{
								OFFSET 0.000000 26.061493 0.000000
							}
						}
					}
				}
				JOINT LeftShoulder
				{
					OFFSET 5.133500 7.341202 -1.867600
					CHANNELS 3 Xrotation Yrotation Zrotation
					JOINT LeftArm
					{
						OFFSET 8.072663 0.936867 -2.176600
						CHANNELS 3 Xrotation Yrotation Zrotation
						JOINT LeftForeArm
						{
							OFFSET 31.271999 0.000000 0.000000
							CHANNELS 3 Xrotation Yrotation Zrotation
							JOINT LeftHand
							{
								OFFSET 31.771030 0.000000 0.000000
								CHANNELS 3 Xrotation Yrotation Zrotation
								JOINT LeftHandThumb1
								{
									OFFSET 2.886520 -2.557846 4.416640
									CHANNELS 3 Xrotation Yrotation Zrotation
									JOINT LeftHandThumb2
									{
										OFFSET 2.371025 -1.368912 1.368911
										CHANNELS 3 Xrotation Yrotation Zrotation
										JOINT LeftHandThumb3
										{
											OFFSET 2.243378 -1.295212 1.295213
											CHANNELS 3 Xrotation Yrotation Zrotation
											End Site
											{
												OFFSET -0.332611 2.876945 0.020015
											}
										}
									}
								}
								JOINT LeftHandIndex1
								{
									OFFSET 8.568985 -0.641945 3.119977
									CHANNELS 3 Xrotation Yrotation Zrotation
									JOINT LeftHandIndex2
									{
										OFFSET 3.348503 0.000000 0.000000
										CHANNELS 3 Xrotation Yrotation Zrotation
										JOINT LeftHandIndex3
										{
											OFFSET 3.314552 0.000000 0.000000
											CHANNELS 3 Xrotation Yrotation Zrotation
											End Site
											{
												OFFSET -1.032898 3.075485 0.678796
											}
										}
									}
								}
								JOINT LeftHandMiddle1
								{
									OFFSET 8.124603 0.000000 0.000000
									CHANNELS 3 Xrotation Yrotation Zrotation
									JOINT LeftHandMiddle2
									{
										OFFSET 4.166275 0.000000 0.000000
										CHANNELS 3 Xrotation Yrotation Zrotation
										JOINT LeftHandMiddle3
										{
											OFFSET 3.018135 0.000000 0.000000
											CHANNELS 3 Xrotation Yrotation Zrotation
											End Site
											{
												OFFSET -1.032700 2.767982 0.617226
											}
										}
									}
								}
								JOINT LeftHandRing1
								{
									OFFSET 8.571686 -0.031357 -2.884048
									CHANNELS 3 Xrotation Yrotation Zrotation
									JOINT LeftHandRing2
									{
										OFFSET 3.671181 0.000000 0.000000
										CHANNELS 3 Xrotation Yrotation Zrotation
										JOINT LeftHandRing3
										{
											OFFSET 2.728851 0.000000 0.000000
											CHANNELS 3 Xrotation Yrotation Zrotation
											End Site
											{
												OFFSET -0.815796 2.539223 0.577389
											}
										}
									}
								}
								JOINT LeftHandPinky1
								{
									OFFSET 7.854515 -0.675232 -5.213020
									CHANNELS 3 Xrotation Yrotation Zrotation
									JOINT LeftHandPinky2
									{
										OFFSET 3.068596 0.000000 0.000000
										CHANNELS 3 Xrotation Yrotation Zrotation
										JOINT LeftHandPinky3
										{
											OFFSET 2.396042 0.000000 0.000000
											CHANNELS 3 Xrotation Yrotation Zrotation
											End Site
											{
												OFFSET -0.524597 2.267998 0.567429
											}
										}
									}
								}
							}
							JOINT LeftSleeve
							{
								OFFSET 19.684509 -0.200119 0.476146
								CHANNELS 3 Xrotation Yrotation Zrotation
								End Site
								{
									OFFSET -0.031017 25.731133 -0.002868
								}
							}
						}
					}
				}
				JOINT RightShoulder
				{
					OFFSET -4.395900 7.341202 -1.870200
					CHANNELS 3 Xrotation Yrotation Zrotation
					JOINT RightArm
					{
						OFFSET -8.071453 0.936867 -2.181100
						CHANNELS 3 Xrotation Yrotation Zrotation
						JOINT RightForeArm
						{
							OFFSET -31.272011 0.000000 0.000000
							CHANNELS 3 Xrotation Yrotation Zrotation
							JOINT RightHand
							{
								OFFSET -31.771019 0.000000 0.000000
								CHANNELS 3 Xrotation Yrotation Zrotation
								JOINT RightHandThumb1
								{
									OFFSET -2.886520 -2.557808 4.416626
									CHANNELS 3 Xrotation Yrotation Zrotation
									JOINT RightHandThumb2
									{
										OFFSET -2.371056 -1.368927 1.368928
										CHANNELS 3 Xrotation Yrotation Zrotation
										JOINT RightHandThumb3
										{
											OFFSET -2.243362 -1.295204 1.295206
											CHANNELS 3 Xrotation Yrotation Zrotation
											End Site
											{
												OFFSET 0.332642 2.876938 0.020047
											}
										}
									}
								}
								JOINT RightHandIndex1
								{
									OFFSET -8.568993 -0.641953 3.120017
									CHANNELS 3 Xrotation Yrotation Zrotation
									JOINT RightHandIndex2
									{
										OFFSET -3.348518 0.000000 0.000000
										CHANNELS 3 Xrotation Yrotation Zrotation
										JOINT RightHandIndex3
										{
											OFFSET -3.314552 0.000000 0.000000
											CHANNELS 3 Xrotation Yrotation Zrotation
											End Site
											{
												OFFSET 1.032898 3.075478 0.678804
											}
										}
									}
								}
								JOINT RightHandMiddle1
								{
									OFFSET -8.124588 0.000000 0.000000
									CHANNELS 3 Xrotation Yrotation Zrotation
									JOINT RightHandMiddle2
									{
										OFFSET -4.166275 0.000000 0.000000
										CHANNELS 3 Xrotation Yrotation Zrotation
										JOINT RightHandMiddle3
										{
											OFFSET -3.018097 0.000000 0.000000
											CHANNELS 3 Xrotation Yrotation Zrotation
											End Site
											{
												OFFSET 1.032700 2.767937 0.617197
											}
										}
									}
								}
								JOINT RightHandRing1
								{
									OFFSET -8.571747 -0.031349 -2.884061
									CHANNELS 3 Xrotation Yrotation Zrotation
									JOINT RightHandRing2
									{
										OFFSET -3.671204 0.000000 0.000000
										CHANNELS 3 Xrotation Yrotation Zrotation
										JOINT RightHandRing3
										{
											OFFSET -2.728874 0.000000 0.000000
											CHANNELS 3 Xrotation Yrotation Zrotation
											End Site
											{
												OFFSET 0.815804 2.539261 0.577413
											}
										}
									}
								}
								JOINT RightHandPinky1
								{
									OFFSET -7.854561 -0.675247 -5.212970
									CHANNELS 3 Xrotation Yrotation Zrotation
									JOINT RightHandPinky2
									{
										OFFSET -3.068550 0.000000 0.000000
										CHANNELS 3 Xrotation Yrotation Zrotation
										JOINT RightHandPinky3
										{
											OFFSET -2.395981 0.000000 0.000000
											CHANNELS 3 Xrotation Yrotation Zrotation
											End Site
											{
												OFFSET 0.524605 2.267952 0.567413
											}
										}
									}
								}
							}
							JOINT RightSleeve
							{
								OFFSET -19.684753 -0.200165 0.476065
								CHANNELS 3 Xrotation Yrotation Zrotation
								End Site
								{
									OFFSET 0.031342 25.731255 -0.002917
								}
							}
						}
					}
				}
				JOINT Hood
				{
					OFFSET 0.369700 14.447800 -5.317800
					CHANNELS 3 Xrotation Yrotation Zrotation
					JOINT Hood1
					{
						OFFSET 0.001700 -5.553802 -5.895100
						CHANNELS 3 Xrotation Yrotation Zrotation
						JOINT Hood2
						{
							OFFSET -0.000200 -8.380501 0.763600
							CHANNELS 3 Xrotation Yrotation Zrotation
							End Site
							{
								OFFSET 0.000000 8.415215 0.000000
							}
						}
					}
				}
				JOINT Left_Breast
				{
					OFFSET 5.682500 3.120102 3.188800
					CHANNELS 3 Xrotation Yrotation Zrotation
					End Site
					{
						OFFSET 0.000000 10.528564 0.000000
					}
				}
				JOINT Right_Breast
				{
					OFFSET -4.947600 3.120102 3.185900
					CHANNELS 3 Xrotation Yrotation Zrotation
					End Site
					{
						OFFSET 0.000000 10.528564 0.000000
					}
				}
				JOINT Whistle
				{
					OFFSET 0.368200 11.471298 0.095400
					CHANNELS 3 Xrotation Yrotation Zrotation
					JOINT Whistle1
					{
						OFFSET -0.002000 -6.349899 7.479800
						CHANNELS 3 Xrotation Yrotation Zrotation
						JOINT Whistle2
						{
							OFFSET -0.001300 -8.217598 4.717600
							CHANNELS 3 Xrotation Yrotation Zrotation
							End Site
							{
								OFFSET 0.000000 9.475479 0.000000
							}
						}
					}
				}
			}
		}
		JOINT Belly
		{
			OFFSET 0.212400 1.593002 3.163700
			CHANNELS 3 Xrotation Yrotation Zrotation
			End Site
			{
				OFFSET 0.000000 7.496635 0.000000
			}
		}
	}
	JOINT FitGrandmaFacialAnim_Joint
	{
		OFFSET 1.150000 -86.211197 -1.220100
		CHANNELS 3 Xrotation Yrotation Zrotation
		End Site
		{
			OFFSET 0.000000 31.666618 0.000000
		}
	}
}
MOTION
Frames: 4
Frame Time: 0.016667
3.502436 83.721649 7.479425 -31.917139 -38.366767 -21.518279 -0.000000 -0.000001 0.000001 5.622666 12.566631 1.615207 33.338324 -1.743499 -4.550269 -15.593846 8.369270 7.566664 -0.000000 0.000001 -0.000000 0.000000 -0.000003 0.000001 0.000001 0.000002 -0.000000 18.944918 -9.147024 -8.688659 27.991203 5.048383 -5.902927 -20.823543 -12.122700 6.830187 0.000000 0.000001 -0.000001 -0.000000 -0.000001 0.000003 0.000000 -0.000001 0.000000 11.176617 -4.808122 -0.861320 3.545656 -2.400654 -0.151374 3.557024 -2.388379 -0.108335 1.348021 0.319768 -0.743109 -7.666567 -1.011470 4.648233 -0.000000 0.000004 0.000001 -0.000000 0.000004 0.000001 -0.000000 0.000004 0.000001 -0.000000 0.000004 0.000001 -0.000000 0.000004 0.000001 -0.000000 0.000004 0.000001 -0.000000 0.000004 0.000001 -0.000000 0.000004 0.000001 -0.000000 0.000004 0.000001 -0.000000 0.000004 0.000001 -0.000000 0.000004 0.000001 -0.000000 0.000004 0.000001 -0.000000 0.000004 0.000001 -0.000000 0.000004 0.000001 -0.000000 0.000004 0.000001 -0.000000 0.000004 0.000001 -0.000000 0.000004 0.000001 -0.000000 0.000004 0.000001 -0.000000 0.000004 0.000001 0.576504 -16.606966 -10.307154 -20.089169 4.591503 -37.031216 0.000015 -67.698895 0.000045 -41.746710 -11.632954 -7.621729 -22.783320 -14.798006 12.273495 3.061442 10.434221 14.851290 -0.000001 -0.000001 0.000002 2.077598 -2.776277 26.093717 3.254374 5.245066 -63.613896 0.000001 -0.000001 0.000000 -0.902192 3.834342 20.965928 2.978800 5.099681 -60.557905 -0.000001 0.000001 -0.000001 -6.120876 13.236928 27.840257 3.788281 5.476591 -69.323702 0.000002 -0.000001 0.000002 -10.441744 21.141300 29.056584 0.279094 1.788351 -17.739145 -0.000001 -0.000001 0.000002 0.000000 0.000002 0.000000 0.014988 14.189114 15.480067 -11.472629 -5.400273 60.640387 0.000000 39.601041 -0.000004 -3.018901 -4.350296 23.974276 -20.073105 16.089487 -24.921345 8.794308 -40.952752 -1.386091 0.000002 -0.000001 0.000000 1.096413 -5.220430 38.986348 3.071115 -4.379352 70.068520 -0.000003 -0.000004 0.000004 2.986227 -6.607883 70.685218 0.640893 -2.359609 30.386730 -0.000000 0.000000 -0.000001 5.905029 -7.187174 80.752917 0.324117 -1.708688 21.480960 -0.000001 -0.000005 0.000003 2.049628 -22.469478 97.460215 1.111356 -3.021259 40.383999 -0.000001 0.000001 0.000001 0.000002 -0.000001 -0.000002 -0.000000 -0.000002 -0.000000 -0.000000 -0.000002 -0.000000 -0.000000 -0.000002 -0.000000 -0.000000 -0.000002 -0.000000 -0.000000 -0.000002 -0.000000 -0.000001 -0.000002 -0.000000 -0.000000 -0.000002 0.000000 -0.000000 -0.000002 0.000000 -0.000001 -0.000003 -0.000001 -0.000000 -0.000001 0.000001 
3.843573 83.724884 7.748465 -32.432918 -39.383666 -22.337020 0.000002 -0.000001 -0.000001 5.757983 12.767449 1.507248 33.341387 -2.132575 -4.962321 -15.893900 9.589879 8.619105 0.000000 0.000002 -0.000000 0.000001 -0.000003 -0.000001 -0.000002 -0.000001 -0.000001 18.417981 -9.004555 -9.016117 28.160064 4.765710 -6.046304 -20.066835 -12.402995 7.430728 -0.000000 0.000002 -0.000000 -0.000001 0.000000 -0.000001 0.000000 0.000001 -0.000000 11.176388 -4.807374 -0.863958 3.545655 -2.400650 -0.151374 3.557024 -2.388378 -0.108335 1.314815 0.322540 -0.750639 -7.907084 -0.936237 4.513181 -0.000001 0.000000 -0.000000 -0.000001 0.000000 -0.000000 -0.000001 0.000000 -0.000000 -0.000001 0.000000 -0.000000 -0.000001 0.000000 -0.000000 -0.000001 0.000000 -0.000000 -0.000001 0.000000 -0.000000 -0.000001 0.000000 -0.000000 -0.000001 0.000000 -0.000000 -0.000001 0.000000 -0.000000 -0.000001 0.000000 -0.000000 -0.000001 0.000000 -0.000000 -0.000001 0.000000 -0.000000 -0.000001 0.000000 -0.000000 -0.000001 0.000000 -0.000000 -0.000001 0.000000 -0.000000 -0.000001 0.000000 -0.000000 -0.000001 0.000000 -0.000000 -0.000001 0.000000 -0.000000 0.579608 -16.606982 -10.288918 -19.994004 4.524826 -36.978624 0.000019 -67.695193 0.000033 -41.851455 -11.691136 -7.561905 -22.783320 -14.798008 12.273490 3.079692 10.434821 14.836325 0.000000 0.000001 -0.000001 2.045394 -2.802592 26.067082 3.253661 5.244703 -63.605973 -0.000002 -0.000000 -0.000001 -0.893477 3.814333 20.948154 2.979427 5.100053 -60.565111 -0.000003 -0.000000 -0.000001 -6.128920 13.260706 27.829044 3.784908 5.475310 -69.288349 0.000001 0.000001 0.000000 -10.387989 21.193286 29.075268 0.279676 1.790208 -17.758009 -0.000001 0.000001 -0.000003 0.000000 -0.000001 0.000001 0.007982 14.220993 15.529861 -11.429899 -5.404791 60.569954 -0.000006 39.667177 0.000011 -3.063968 -4.381493 23.963507 -20.073100 16.089482 -24.921349 8.794307 -40.952759 -1.386091 -0.000001 -0.000000 -0.000000 1.106961 -5.237068 39.169714 3.083401 -4.383790 70.229433 -0.000003 -0.000001 -0.000001 2.981878 -6.606626 70.757877 0.640863 -2.359557 30.385965 -0.000002 0.000000 -0.000001 5.895829 -7.186307 80.734748 0.324327 -1.709202 21.487809 -0.000004 -0.000003 0.000001 2.105666 -22.468983 97.580317 1.111360 -3.021258 40.384002 0.000002 0.000001 0.000002 -0.000002 0.000001 0.000000 -0.000000 0.000002 0.000000 -0.000000 0.000002 0.000000 -0.000000 0.000002 0.000000 -0.000000 0.000002 0.000000 -0.000000 0.000002 0.000000 -0.000000 0.000002 0.000000 0.000000 -0.000001 -0.000000 0.000000 -0.000001 -0.000000 -0.000001 -0.000002 -0.000000 0.000002 -0.000001 -0.000001 
4.173634 83.728294 8.018566 -32.975265 -40.394210 -23.179753 -0.000001 -0.000001 0.000000 5.963996 12.960920 1.314271 33.237422 -2.552987 -5.295982 -16.438220 10.860907 9.837872 0.000000 0.000001 0.000000 0.000000 -0.000002 -0.000001 0.000002 0.000001 -0.000000 17.846420 -8.980305 -9.393344 28.380109 4.940759 -6.068604 -19.313719 -13.273694 7.744739 -0.000000 -0.000001 -0.000001 -0.000001 -0.000001 0.000001 0.000001 -0.000000 -0.000000 11.176175 -4.806638 -0.866514 3.545656 -2.400649 -0.151373 3.557024 -2.388380 -0.108336 1.278866 0.332792 -0.774661 -8.164870 -0.794802 4.357011 -0.000001 -0.000001 -0.000002 -0.000001 -0.000001 -0.000002 -0.000001 -0.000001 -0.000002 -0.000001 -0.000001 -0.000002 -0.000001 -0.000001 -0.000002 -0.000001 -0.000001 -0.000002 -0.000001 -0.000001 -0.000002 -0.000001 -0.000001 -0.000002 -0.000001 -0.000001 -0.000002 -0.000001 -0.000001 -0.000002 -0.000001 -0.000001 -0.000002 -0.000001 -0.000001 -0.000002 -0.000001 -0.000001 -0.000002 -0.000001 -0.000001 -0.000002 -0.000001 -0.000001 -0.000002 -0.000001 -0.000001 -0.000002 -0.000001 -0.000001 -0.000002 -0.000001 -0.000001 -0.000002 -0.000001 -0.000001 -0.000002 0.580766 -16.582634 -10.279783 -19.895776 4.421331 -36.921793 -0.000055 -67.679450 -0.000076 -41.961049 -11.751891 -7.500592 -22.783320 -14.798008 12.273492 3.099930 10.435470 14.819800 0.000002 -0.000000 0.000002 2.025255 -2.817815 26.042806 3.253558 5.244651 -63.604996 0.000000 -0.000001 0.000002 -0.885655 3.795378 20.937781 2.979677 5.100178 -60.567788 -0.000002 0.000003 -0.000003 -6.132733 13.270830 27.825646 3.782956 5.474582 -69.267844 -0.000001 0.000001 -0.000001 -10.351135 21.229404 29.094427 0.279754 1.790416 -17.760193 -0.000001 0.000001 -0.000004 -0.000002 0.000001 0.000004 0.005025 14.258418 15.543485 -11.398961 -5.416199 60.537497 -0.000047 39.702933 0.000047 -3.105293 -4.392590 23.950453 -20.073103 16.089482 -24.921345 8.794301 -40.952762 -1.386092 -0.000001 0.000001 0.000000 1.117287 -5.251222 39.338362 3.100190 -4.389741 70.448839 0.000000 -0.000001 -0.000001 2.976164 -6.604916 70.820551 0.641031 -2.359872 30.390298 -0.000004 -0.000000 0.000000 5.886041 -7.185550 80.710863 0.324515 -1.709657 21.493808 0.000003 0.000000 -0.000004 2.138435 -22.467848 97.646017 1.111358 -3.021258 40.383999 -0.000005 0.000001 0.000002 0.000002 -0.000001 0.000000 -0.000000 -0.000001 -0.000000 -0.000000 -0.000001 -0.000000 -0.000000 -0.000001 -0.000000 -0.000000 -0.000001 -0.000000 -0.000000 -0.000001 -0.000000 -0.000000 -0.000001 -0.000000 0.000000 -0.000003 -0.000000 0.000000 -0.000003 -0.000000 -0.000000 -0.000002 -0.000001 -0.000001 -0.000001 0.000000 
4.487694 83.732574 8.296495 -33.545487 -41.397968 -24.047501 -0.000001 0.000001 0.000001 6.219832 13.122986 1.238452 32.995835 -3.022328 -5.667396 -16.789136 12.240451 10.426932 0.000000 0.000001 -0.000000 -0.000000 -0.000002 -0.000001 -0.000002 0.000001 -0.000000 17.263233 -9.015317 -9.681692 28.593177 4.886472 -6.036139 -18.547515 -14.739939 7.795251 0.000000 0.000000 -0.000001 -0.000001 -0.000003 0.000001 -0.000001 0.000002 0.000000 11.175938 -4.805844 -0.869317 3.545656 -2.400653 -0.151373 3.557023 -2.388377 -0.108335 1.244413 0.349210 -0.810673 -8.403960 -0.613180 4.203381 -0.000001 0.000001 -0.000000 -0.000001 0.000001 -0.000000 -0.000001 0.000001 -0.000000 -0.000001 0.000001 -0.000000 -0.000001 0.000001 -0.000000 -0.000001 0.000001 -0.000000 -0.000001 0.000001 -0.000000 -0.000001 0.000001 -0.000000 -0.000001 0.000001 -0.000000 -0.000001 0.000001 -0.000000 -0.000001 0.000001 -0.000000 -0.000001 0.000001 -0.000000 -0.000001 0.000001 -0.000000 -0.000001 0.000001 -0.000000 -0.000001 0.000001 -0.000000 -0.000001 0.000001 -0.000000 -0.000001 0.000001 -0.000000 -0.000001 0.000001 -0.000000 -0.000001 0.000001 -0.000000 0.581070 -16.531967 -10.273116 -19.827091 4.304724 -36.893861 -0.000057 -67.649131 -0.000052 -42.037847 -11.798967 -7.458940 -22.783322 -14.798015 12.273496 3.120379 10.436115 14.803054 -0.000001 -0.000001 -0.000000 2.016335 -2.822791 26.020147 3.253942 5.244841 -63.609347 0.000003 -0.000000 0.000002 -0.880738 3.784772 20.924174 2.979469 5.100039 -60.565241 -0.000002 0.000001 0.000001 -6.133159 13.271895 27.825398 3.781470 5.474056 -69.252456 0.000001 0.000001 -0.000001 -10.329234 21.252274 29.106660 0.279455 1.789514 -17.750963 0.000001 -0.000001 -0.000003 0.000000 0.000001 0.000004 0.004875 14.295181 15.534099 -11.379685 -5.432804 60.532073 -0.000014 39.716724 0.000005 -3.137147 -4.390537 23.938396 -20.073103 16.089486 -24.921344 8.794302 -40.952759 -1.386091 0.000001 0.000002 -0.000001 1.125938 -5.261640 39.465533 3.114869 -4.394926 70.640542 -0.000006 0.000001 0.000002 2.971158 -6.603316 70.859579 0.641261 -2.360269 30.395954 0.000002 -0.000000 0.000002 5.878795 -7.185228 80.685325 0.324627 -1.709935 21.497583 -0.000003 -0.000001 -0.000001 2.141831 -22.466816 97.647513 1.111357 -3.021254 40.383992 0.000001 -0.000002 -0.000001 -0.000000 0.000001 0.000000 -0.000000 0.000002 0.000000 -0.000000 0.000002 0.000000 -0.000000 0.000002 0.000000 -0.000000 0.000002 0.000000 -0.000000 0.000002 0.000000 -0.000000 0.000002 0.000000 0.000000 -0.000000 0.000000 0.000000 -0.000000 0.000000 -0.000000 -0.000004 -0.000001 -0.000001 0.000001 0.000001 
